<?xml version="1.0"?>
<svg xmlns="http://www.w3.org/2000/svg" xmlns:xlink="http://www.w3.org/1999/xlink" xmlns:svgjs="http://svgjs.com/svgjs" version="1.1" width="16" height="16" x="0" y="0" viewBox="0 0 39.861 39.861" style="enable-background:new 0 0 512 512" xml:space="preserve" class=""><g>
<g xmlns="http://www.w3.org/2000/svg">
	<g>
		<path style="" d="M37.973,13.816L21.652,0.576c-0.947-0.768-2.495-0.768-3.442,0L1.887,13.816    c-0.151,0.123-0.282,0.26-0.395,0.406c-0.549,0.223-0.936,0.76-0.936,1.389v21.75c0,1.378,1.122,2.5,2.5,2.5h33.75    c1.378,0,2.5-1.122,2.5-2.5v-21.75c0-0.629-0.388-1.166-0.937-1.389C38.256,14.076,38.125,13.939,37.973,13.816z M28.396,28.494    c-0.203-0.188-0.519-0.176-0.707,0.027s-0.176,0.519,0.027,0.707l8.236,7.633H4.41l8.236-7.633    c0.203-0.188,0.214-0.504,0.027-0.707c-0.188-0.203-0.505-0.215-0.707-0.027l-8.41,7.795V18.344l14.725,9.37    c0.463,0.295,1.049,0.458,1.65,0.458c0.601,0,1.187-0.163,1.649-0.457l14.726-9.371v17.482L28.396,28.494z M19.931,3.043    l15.313,12.421l-15.234,9.698c-0.007,0.002-0.037,0.009-0.079,0.009l-0.039,0.012L4.617,15.464L19.931,3.043z" fill="#f1eff3" data-original="#010002" class=""/>
	</g>
</g>
<g xmlns="http://www.w3.org/2000/svg">
</g>
<g xmlns="http://www.w3.org/2000/svg">
</g>
<g xmlns="http://www.w3.org/2000/svg">
</g>
<g xmlns="http://www.w3.org/2000/svg">
</g>
<g xmlns="http://www.w3.org/2000/svg">
</g>
<g xmlns="http://www.w3.org/2000/svg">
</g>
<g xmlns="http://www.w3.org/2000/svg">
</g>
<g xmlns="http://www.w3.org/2000/svg">
</g>
<g xmlns="http://www.w3.org/2000/svg">
</g>
<g xmlns="http://www.w3.org/2000/svg">
</g>
<g xmlns="http://www.w3.org/2000/svg">
</g>
<g xmlns="http://www.w3.org/2000/svg">
</g>
<g xmlns="http://www.w3.org/2000/svg">
</g>
<g xmlns="http://www.w3.org/2000/svg">
</g>
<g xmlns="http://www.w3.org/2000/svg">
</g>
</g></svg>
